<svg height="480pt" viewBox="0 -4 480 480" width="480pt" xmlns="http://www.w3.org/2000/svg"><path d="m416 424h-352l-16-200h384zm0 0" fill="#2f7a92"/><path d="m0 456h480v16h-480zm0 0" fill="#603813"/><path d="m24 192h432v32h-432zm0 0" fill="#226c8a"/><path d="m93.542969 392h292.914062l3.839844-48h-300.59375zm0 0" fill="#8c6239"/><path d="m397.335938 256h-314.671876l3.199219 40h308.273438zm0 0" fill="#8c6239"/><path d="m85.863281 296 3.839844 48h300.59375l3.839844-48zm0 0" fill="#a67c52"/><path d="m32 192 16-32 8-40 32 8 40 24 8 32v8zm0 0" fill="#808080"/><path d="m136 192-8-40 8-40 48-40h88l32 72 32 24 8 24zm0 0" fill="#4d4d4d"/><path d="m304 144 32-48 40 8 32 24 32 16 16 24-16 24h-96l-8-24zm0 0" fill="#666"/><path d="m120 64 64 8-48 40-8 40-40-24 8-24zm0 0" fill="#666"/><path d="m16 416h448v16h-448zm0 0" fill="#226c8a"/><path d="m224 72 40-24 8-32 32-16 32 32 40 16 16 32-16 24-40-8-32 48-32-72zm0 0" fill="#808080"/><path d="m148.449219 67.550781 19.550781-35.550781 32-16h72l-8 32-40 24h-40zm0 0" fill="#4d4d4d"/><path d="m368 416c0 26.507812-21.492188 48-48 48s-48-21.492188-48-48 21.492188-48 48-48 48 21.492188 48 48zm0 0" fill="#666"/><path d="m336 416c0 8.835938-7.164062 16-16 16s-16-7.164062-16-16 7.164062-16 16-16 16 7.164062 16 16zm0 0" fill="#b3b3b3"/><path d="m208 416c0 26.507812-21.492188 48-48 48s-48-21.492188-48-48 21.492188-48 48-48 48 21.492188 48 48zm0 0" fill="#666"/><path d="m176 416c0 8.835938-7.164062 16-16 16s-16-7.164062-16-16 7.164062-16 16-16 16 7.164062 16 16zm0 0" fill="#b3b3b3"/><g fill="#226c8a"><path d="m456 400h16v48h-16zm0 0"/><path d="m8 400h16v48h-16zm0 0"/></g></svg>