<svg height="512pt" viewBox="-32 0 511 512" width="512pt" xmlns="http://www.w3.org/2000/svg"><path d="m422.9375 428.875-118.09375-188.941406h-160.664062l-118.089844 188.941406c-23.417969 37.46875-6.425782 68.125 37.757812 68.125h321.332032c44.183593 0 61.175781-30.65625 37.757812-68.125zm0 0" fill="#ffb64c"/><path d="m422.9375 428.875-118.09375-188.941406h-80.332031v257.066406h160.664062c44.1875 0 61.179688-30.65625 37.761719-68.125zm0 0" fill="#ff5b5b"/><path d="m264.679688 431.664062c-3.945313 0-7.816407-1.597656-10.605469-4.386718-2.792969-2.800782-4.402344-6.671875-4.402344-10.613282 0-3.949218 1.609375-7.808593 4.402344-10.605468 2.789062-2.792969 6.660156-4.394532 10.605469-4.394532 3.953124 0 7.8125 1.601563 10.601562 4.394532 2.792969 2.796875 4.390625 6.65625 4.390625 10.605468 0 3.941407-1.597656 7.8125-4.390625 10.613282-2.789062 2.789062-6.660156 4.386718-10.601562 4.386718zm0 0" fill="#ffa17a"/><path d="m184.34375 431.664062c-3.949219 0-7.8125-1.597656-10.601562-4.386718-2.800782-2.800782-4.398438-6.671875-4.398438-10.613282 0-3.949218 1.597656-7.808593 4.398438-10.605468 2.789062-2.792969 6.648437-4.394532 10.601562-4.394532 3.949219 0 7.820312 1.601563 10.609375 4.394532 2.789063 2.796875 4.390625 6.65625 4.390625 10.605468 0 3.953126-1.601562 7.8125-4.390625 10.613282-2.800781 2.789062-6.660156 4.386718-10.609375 4.386718zm0 0" fill="#ffeb95"/><path d="m224.511719 351.335938c-3.949219 0-7.820313-1.609376-10.609375-4.398438-2.789063-2.789062-4.390625-6.660156-4.390625-10.601562 0-3.949219 1.601562-7.820313 4.390625-10.609376 2.789062-2.789062 6.660156-4.390624 10.609375-4.390624 3.953125 0 7.8125 1.601562 10.609375 4.390624 2.792968 2.789063 4.390625 6.660157 4.390625 10.609376 0 3.949218-1.597657 7.8125-4.390625 10.601562-2.796875 2.789062-6.65625 4.398438-10.609375 4.398438zm0 0" fill="#ffeb95"/><path d="m435.65625 420.925781-115.808594-185.296875v-127.367187c23.152344-6.550781 40.164063-27.871094 40.164063-53.097657 0-30.417968-24.746094-55.164062-55.164063-55.164062h-160.667968c-30.421876 0-55.167969 24.746094-55.167969 55.164062 0 25.226563 17.011719 46.546876 40.167969 53.097657v127.367187l-115.8125 185.296875c-14.34375 22.953125-16.785157 45.445313-6.871094 63.335938 9.917968 17.886719 30.28125 27.738281 57.351562 27.738281h321.332032c27.066406 0 47.433593-9.851562 57.347656-27.738281 9.914062-17.890625 7.472656-40.382813-6.871094-63.335938zm-19.367188 48.792969c-4.328124 7.804688-15.667968 12.28125-31.109374 12.28125h-321.332032c-15.445312 0-26.785156-4.476562-31.109375-12.28125-4.328125-7.808594-2.113281-19.796875 6.070313-32.894531l113.683594-181.890625h144.039062l113.683594 181.890625c8.1875 13.097656 10.398437 25.085937 6.074218 32.894531zm0 0" fill="#deecf1"/><path d="m435.65625 420.925781-115.808594-185.296875v-127.367187c23.152344-6.550781 40.164063-27.871094 40.164063-53.097657 0-30.417968-24.746094-55.164062-55.164063-55.164062h-80.335937v254.933594h72.019531l113.683594 181.894531c8.1875 13.097656 10.398437 25.082031 6.074218 32.890625-4.328124 7.804688-15.667968 12.28125-31.109374 12.28125h-160.667969v30h160.667969c27.066406 0 47.433593-9.851562 57.347656-27.738281 9.914062-17.890625 7.472656-40.382813-6.871094-63.335938zm0 0" fill="#76e2f8"/></svg>