<svg height="512pt" viewBox="0 0 512 512" width="512pt" xmlns="http://www.w3.org/2000/svg"><path d="m396.296875 411.296875c-3.835937 0-7.675781-1.460937-10.605469-4.394531l-83.511718-83.503906c-5.855469-5.859376-5.855469-15.355469 0-21.214844 5.859374-5.855469 15.355468-5.859375 21.214843 0l83.507813 83.507812c5.859375 5.859375 5.859375 15.355469 0 21.210938-2.925782 2.929687-6.765625 4.394531-10.605469 4.394531zm0 0" fill="#76e2f8"/><path d="m313.800781 213.199219c-3.839843 0-7.675781-1.464844-10.605469-4.394531-5.859374-5.855469-5.859374-15.355469 0-21.214844l80.34375-80.339844c5.859376-5.859375 15.355469-5.859375 21.214844 0 5.855469 5.855469 5.855469 15.355469 0 21.210938l-80.347656 80.34375c-2.925781 2.929687-6.765625 4.394531-10.605469 4.394531zm0 0" fill="#76e2f8"/><path d="m199.195312 214.195312c-3.839843 0-7.679687-1.460937-10.605468-4.394531l-83.492188-83.492187c-5.859375-5.855469-5.859375-15.355469 0-21.210938 5.855469-5.859375 15.351563-5.859375 21.210938 0l83.492187 83.492188c5.859375 5.855468 5.859375 15.355468 0 21.210937-2.929687 2.929688-6.765625 4.394531-10.605469 4.394531zm0 0" fill="#a8ebfa"/><path d="m117.847656 409.152344c-3.839844 0-7.679687-1.464844-10.609375-4.394532-5.855469-5.859374-5.855469-15.355468 0-21.214843l81.351563-81.34375c5.855468-5.859375 15.355468-5.859375 21.210937 0 5.859375 5.855469 5.859375 15.355469 0 21.210937l-81.347656 81.347656c-2.929687 2.929688-6.765625 4.394532-10.605469 4.394532zm0 0" fill="#a8ebfa"/><path d="m87.300781 32.132812c-30.421875 0-55.167969 24.746094-55.167969 55.167969 0 30.417969 24.746094 55.167969 55.167969 55.167969 30.417969 0 55.164063-24.75 55.164063-55.167969 0-30.421875-24.746094-55.167969-55.164063-55.167969zm0 0" fill="#ffb64c"/><path d="m75.25 361.5c-41.492188 0-75.25 33.757812-75.25 75.25s33.757812 75.25 75.25 75.25 75.25-33.757812 75.25-75.25-33.757812-75.25-75.25-75.25zm0 0" fill="#005183"/><path d="m436.75 0c-41.492188 0-75.25 33.757812-75.25 75.25s33.757812 75.25 75.25 75.25 75.25-33.757812 75.25-75.25-33.757812-75.25-75.25-75.25zm0 0" fill="#7fe881"/><path d="m424.699219 369.535156c-30.417969 0-55.164063 24.746094-55.164063 55.164063 0 30.421875 24.746094 55.167969 55.164063 55.167969s55.167969-24.746094 55.167969-55.167969c0-30.417969-24.75-55.164063-55.167969-55.164063zm0 0" fill="#0082ff"/><path d="m256 160.667969c-52.566406 0-95.332031 42.765625-95.332031 95.332031s42.765625 95.332031 95.332031 95.332031 95.332031-42.765625 95.332031-95.332031-42.765625-95.332031-95.332031-95.332031zm0 0" fill="#ff637b"/><path d="m142.464844 87.300781c0-30.421875-24.746094-55.167969-55.164063-55.167969v110.335938c30.417969 0 55.164063-24.75 55.164063-55.167969zm0 0" fill="#ff5b5b"/><path d="m75.25 361.5v150.5c41.492188 0 75.25-33.757812 75.25-75.25s-33.757812-75.25-75.25-75.25zm0 0" fill="#00215a"/><path d="m436.75 0v150.5c41.492188 0 75.25-33.757812 75.25-75.25s-33.757812-75.25-75.25-75.25zm0 0" fill="#00a03c"/><path d="m424.699219 369.535156v110.332032c30.421875 0 55.167969-24.75 55.167969-55.167969s-24.746094-55.164063-55.167969-55.164063zm0 0" fill="#3a4de2"/><path d="m256 160.667969v190.664062c52.566406 0 95.332031-42.765625 95.332031-95.332031s-42.765625-95.332031-95.332031-95.332031zm0 0" fill="#ff1786"/></svg>