<svg viewBox="-28 0 512 512" xmlns="http://www.w3.org/2000/svg"><g fill="#c6e2e7"><path d="m213.339844 0h30v151h-30zm0 0"/><path d="m283.839844 116.5-55.5 55.800781-55.5-55.800781 21-21 34.5 34.199219 34.5-34.199219zm0 0"/><path d="m213.339844 361h30v151h-30zm0 0"/><path d="m283.839844 395.5-21 21-34.5-34.199219-34.5 34.199219-21-21 55.5-55.800781zm0 0"/><path d="m15 396.492188-15-25.984376 129.902344-75 15 25.984376zm0 0"/><path d="m135.425781 373.847656-28.976562-7.765625 12.582031-46.976562-46.976562-12.582031 7.765624-28.976563 75.953126 20.347656zm0 0"/></g><path d="m326.777344 216.492188-15-25.984376 129.902344-75 15 25.984376zm0 0" fill="#a8d3d8"/><path d="m376.859375 234.453125-75.953125-20.347656 20.347656-75.953125 28.976563 7.765625-12.582031 46.976562 46.976562 12.582031zm0 0" fill="#a8d3d8"/><path d="m441.679688 396.492188-129.902344-75 15-25.984376 129.902344 75zm0 0" fill="#a8d3d8"/><path d="m321.253906 373.847656-20.347656-75.953125 75.953125-20.347656 7.765625 28.976563-46.976562 12.582031 12.582031 46.976562zm0 0" fill="#a8d3d8"/><path d="m129.902344 216.492188-129.902344-75 15-25.984376 129.902344 75zm0 0" fill="#c6e2e7"/><path d="m79.820312 234.453125-7.765624-28.976563 46.976562-12.582031-12.582031-46.976562 28.976562-7.765625 20.347657 75.953125zm0 0" fill="#c6e2e7"/><path d="m228.339844 0h15v151h-15zm0 0" fill="#a8d3d8"/><path d="m228.339844 361h15v151h-15zm0 0" fill="#a8d3d8"/><path d="m228.339844 339.699219 55.5 55.800781-21 21-34.5-34.199219zm0 0" fill="#a8d3d8"/><path d="m283.839844 116.5-55.5 55.800781v-42.601562l34.5-34.199219zm0 0" fill="#a8d3d8"/><path d="m228.339844 151c-57.898438 0-105 47.101562-105 105s47.101562 105 105 105c57.898437 0 105-47.101562 105-105s-47.101563-105-105-105zm0 0" fill="#f66"/><path d="m333.339844 256c0 57.898438-47.101563 105-105 105v-210c57.898437 0 105 47.101562 105 105zm0 0" fill="#ff3e48"/><path d="m183.339844 241h90v30h-90zm0 0" fill="#deecf1"/><path d="m228.339844 241h45v30h-45zm0 0" fill="#c6e2e7"/></svg>