<svg height="378pt" viewBox="-5 0 378 378" width="378pt" xmlns="http://www.w3.org/2000/svg"><path d="m324 378c4.417969 0 8-3.582031 8-8v-31h13.988281c5.804688.0625 11.390625-2.191406 15.523438-6.265625 4.132812-4.074219 6.46875-9.625 6.488281-15.429687v-227.304688h-368v227.304688c.0195312 5.804687 2.355469 11.355468 6.488281 15.429687 4.132813 4.074219 9.71875 6.328125 15.523438 6.265625h13.988281v31c0 4.417969 3.582031 8 8 8s8-3.582031 8-8v-31h264v31c0 4.417969 3.582031 8 8 8zm-274-73c-4.417969 0-8-3.582031-8-8v-162c0-4.417969 3.582031-8 8-8h268c4.417969 0 8 3.582031 8 8v162c0 4.417969-3.582031 8-8 8zm0 0"/><path d="m58 290h252v-147h-252zm94.992188-114.476562c3.125 3.125 3.125 8.191406 0 11.316406l-46.671876 46.667968c-3.121093 3.125-8.1875 3.125-11.3125 0s-3.125-8.191406 0-11.316406l46.671876-46.667968c3.121093-3.125 8.1875-3.125 11.3125 0zm-65.054688 11.316406 18.382812-18.386719c3.125-3.125 8.191407-3.125 11.316407 0s3.125 8.191406 0 11.316406l-18.386719 18.382813c-3.125 3.125-8.1875 3.125-11.3125 0s-3.125-8.191406 0-11.3125zm0 0"/><path d="m368 22.242188c0-12.195313-9.816406-22.117188-22.011719-22.242188h-323.976562c-12.195313.125-22.011719 10.046875-22.011719 22.242188v51.757812h368zm-307.011719 27.757812h-33.976562c-4.421875 0-8-3.582031-8-8s3.578125-8 8-8h33.976562c4.421875 0 8 3.582031 8 8s-3.578125 8-8 8zm70 0h-33.976562c-4.421875 0-8-3.582031-8-8s3.578125-8 8-8h33.976562c4.421875 0 8 3.582031 8 8s-3.578125 8-8 8zm70 0h-33.976562c-4.421875 0-8-3.582031-8-8s3.578125-8 8-8h33.976562c4.421875 0 8 3.582031 8 8s-3.578125 8-8 8zm70 0h-33.976562c-4.421875 0-8-3.582031-8-8s3.578125-8 8-8h33.976562c4.421875 0 8 3.582031 8 8s-3.578125 8-8 8zm70 0h-33.976562c-4.421875 0-8-3.582031-8-8s3.578125-8 8-8h33.976562c4.421875 0 8 3.582031 8 8s-3.578125 8-8 8zm0 0"/></svg>