<svg height="496pt" viewBox="0 0 496 496" width="496pt" xmlns="http://www.w3.org/2000/svg"><g fill="#f0bc5e"><path d="m359.296875 362.648438-39.488281-26.648438-39.808594 27.222656 16 28.777344-8 64h64l-8-64zm0 0"/><path d="m272 296v-32h.113281c-15.394531-11.542969-26.539062-28.449219-30.503906-48h-1.609375c-17.671875 0-32-14.328125-32-32s14.328125-32 32-32v-48c10 14.992188 26.824219 24 44.847656 24h3.152344v-24l1.375 1.375c14.488281 14.488281 34.136719 22.625 54.625 22.625v-24l1.375 1.375c14.488281 14.488281 34.136719 22.625 54.625 22.625v24c17.671875 0 32 14.328125 32 32s-14.328125 32-32 32h-1.609375c-3.964844 19.550781-15.109375 36.457031-30.503906 48h.113281v32l72 24v-200c0-66.167969-53.832031-120-120-120s-120 53.832031-120 120v200zm0 0"/><path d="m215.679688 376c.242187 2.640625.320312 5.28125.320312 8 0 28-11.039062 53.359375-28.960938 72-18.960937 19.761719-45.597656 32-75.039062 32-57.441406 0-104-46.558594-104-104 0-11.199219 1.761719-22.078125 5.121094-32.160156 5.4375 4.082031 10.71875 8.160156 21.519531 8.160156 21.359375 0 21.359375-16 42.640625-16 21.359375 0 21.359375 16 42.640625 16 21.359375 0 21.359375-16 42.71875-16 21.28125 0 21.28125 16 42.640625 16 2.71875 0 5.039062-.238281 7.117188-.71875l.5625-.160156c1.359374 5.4375 2.320312 11.117187 2.71875 16.878906zm-31.679688 24c0-8.800781-7.199219-16-16-16s-16 7.199219-16 16 7.199219 16 16 16 16-7.199219 16-16zm-48 40c0-8.800781-7.199219-16-16-16s-16 7.199219-16 16 7.199219 16 16 16 16-7.199219 16-16zm-64-40c0-8.800781-7.199219-16-16-16s-16 7.199219-16 16 7.199219 16 16 16 16-7.199219 16-16zm0 0"/></g><path d="m496 370.601562c0-24.144531-15.390625-45.496093-38.289062-53.128906l-81.710938-27.242187v-22.40625c13.6875-11.320313 23.824219-26.726563 28.710938-44.304688 19.816406-2.359375 35.289062-19.078125 35.289062-39.519531 0-19.3125-13.769531-35.472656-32-39.191406v-40.808594h-16v15.496094c-15.472656-1.769532-29.800781-8.609375-40.976562-19.792969l-15.023438-14.976563v34.824219c-15.480469-1.765625-29.800781-8.65625-40.976562-19.839843l-15.023438-14.984376v35.015626c-12.761719-1.34375-24.328125-8.007813-32-18.390626v-13.351562h-16v56.808594c-18.230469 3.71875-32 19.871094-32 39.191406 0 20.441406 15.472656 37.160156 35.289062 39.519531 4.886719 17.578125 15.023438 32.984375 28.710938 44.304688v22.40625l-65.992188 21.992187c-10.207031-12.214844-23.0625-22.34375-38.007812-29.421875v-58.800781h16v-16h-128v16h16v58.808594c-39.054688 18.503906-64 57.65625-64 101.191406 0 61.761719 50.238281 112 112 112 30.433594 0 58.03125-12.238281 78.230469-32h305.769531zm-81.511719.132813-30.488281 10.160156v-71.132812l16.976562 5.652343zm-11.902343 77.265625h-18.585938v-43.054688l29.832031 14.917969zm-130.585938-87.542969v-54.042969l34.921875 29.097657zm-16 20.4375-30.480469-10.160156 13.503907-55.308594 16.976562-5.65625zm-32.152344 6.152344 19.296875 6.433594-21.03125 10.519531c1-5.519531 1.574219-11.183594 1.734375-16.953125zm-10.398437 44.113281 6.734375 16.839844h-16.398438c3.695313-5.296875 6.902344-10.9375 9.664063-16.839844zm12.71875-11.296875 29.832031-14.917969v43.054688h-18.585938zm45.832031-39.742187 48-34.289063 48 34.289063v67.878906h-96zm96-73.707032v54.042969l-34.921875-24.945312zm24-138.414062c0 4.40625-3.585938 8-8 8h-32c-4.414062 0-8-3.59375-8-8v-8h48zm32 16c0 10.535156-6.871094 19.414062-16.335938 22.632812.167969-2.199218.335938-4.394531.335938-6.632812v-38.527344c9.289062 3.3125 16 12.113282 16 22.527344zm-139.160156-48h11.160156v-14.769531c14.039062 9.601562 30.617188 14.769531 48 14.769531h8v-14.769531c11.863281 8.121093 25.550781 13.027343 40 14.363281v8.40625h-64v16h-16v-16h-64v-20.230469c10.511719 7.796875 23.34375 12.230469 36.839844 12.230469zm-36.839844 24h48v8c0 4.40625-3.585938 8-8 8h-32c-4.414062 0-8-3.59375-8-8zm-32 24c0-10.414062 6.710938-19.214844 16-22.527344v38.527344c0 2.238281.167969 4.433594.335938 6.632812-9.464844-3.21875-16.335938-12.097656-16.335938-22.632812zm32 16v-9.472656c2.511719.898437 5.183594 1.472656 8 1.472656h32c10.414062 0 19.214844-6.710938 22.527344-16h18.953125c3.3125 9.289062 12.113281 16 22.527343 16h32c2.816407 0 5.488282-.574219 8-1.472656v9.472656c0 39.695312-32.296874 72-72 72-39.703124 0-72.007812-32.304688-72.007812-72zm72 88c14.40625 0 27.984375-3.550781 40-9.710938v13.96875l-40 33.335938-40-33.335938v-13.96875c12.015625 6.160157 25.59375 9.710938 40 9.710938zm-98.910156 33.398438-5.121094 20.992187c-2.296875-5.742187-5.046875-11.269531-8.242188-16.535156zm-109.089844 158.601562c-52.9375 0-96-43.0625-96-96 0-38.863281 23.183594-73.648438 59.078125-88.625l4.921875-2.046875v-69.328125h64v69.328125l4.921875 2.046875c35.894531 14.976562 59.078125 49.761719 59.078125 88.625 0 52.9375-43.0625 96-96 96zm368-32h-60.183594l14.34375-35.863281-37.3125-18.65625 36.664063-12.222657-14.609375-59.859374 33.738281 11.25c16.367187 5.457031 27.359375 20.703124 27.359375 37.953124zm0 0"/><path d="m320 248c17.648438 0 32-14.351562 32-32h-16c0 8.824219-7.175781 16-16 16s-16-7.175781-16-16h-16c0 17.648438 14.351562 32 32 32zm0 0"/><path d="m120 416c-13.230469 0-24 10.769531-24 24s10.769531 24 24 24 24-10.769531 24-24-10.769531-24-24-24zm0 32c-4.414062 0-8-3.59375-8-8s3.585938-8 8-8 8 3.59375 8 8-3.585938 8-8 8zm0 0"/><path d="m168 376c-13.230469 0-24 10.769531-24 24s10.769531 24 24 24 24-10.769531 24-24-10.769531-24-24-24zm0 32c-4.414062 0-8-3.59375-8-8s3.585938-8 8-8 8 3.59375 8 8-3.585938 8-8 8zm0 0"/><path d="m56 376c-13.230469 0-24 10.769531-24 24s10.769531 24 24 24 24-10.769531 24-24-10.769531-24-24-24zm0 32c-4.414062 0-8-3.59375-8-8s3.585938-8 8-8 8 3.59375 8 8-3.585938 8-8 8zm0 0"/><path d="m80 168c0 13.230469 10.769531 24 24 24s24-10.769531 24-24-10.769531-24-24-24-24 10.769531-24 24zm32 0c0 4.40625-3.585938 8-8 8s-8-3.59375-8-8 3.585938-8 8-8 8 3.59375 8 8zm0 0"/><path d="m64 144c13.230469 0 24-10.769531 24-24s-10.769531-24-24-24-24 10.769531-24 24 10.769531 24 24 24zm0-32c4.414062 0 8 3.59375 8 8s-3.585938 8-8 8-8-3.59375-8-8 3.585938-8 8-8zm0 0"/><path d="m88 80c13.230469 0 24-10.769531 24-24s-10.769531-24-24-24-24 10.769531-24 24 10.769531 24 24 24zm0-32c4.414062 0 8 3.59375 8 8s-3.585938 8-8 8-8-3.59375-8-8 3.585938-8 8-8zm0 0"/></svg>