<svg height="512pt" viewBox="-46 0 512 512.004" width="512pt" xmlns="http://www.w3.org/2000/svg"><g fill-rule="evenodd"><path d="m178 147.523438c-10.628906-5.242188-19.789062-13.011719-26.691406-22.527344-8.378906 5.828125-18.554688 9.25-29.535156 9.25-28.59375 0-51.769532-23.175782-51.769532-51.769532 0-28.589843 23.175782-51.769531 51.769532-51.769531 10.980468 0 21.15625 3.421875 29.535156 9.25 13.171875-18.148437 34.550781-29.957031 58.695312-29.957031 24.140625 0 45.519532 11.808594 58.691406 29.957031 8.378907-5.828125 18.554688-9.25 29.535157-9.25 28.59375 0 51.769531 23.179688 51.769531 51.769531 0 28.59375-23.175781 51.769532-51.769531 51.769532-10.980469 0-21.15625-3.421875-29.535157-9.25-6.902343 9.515625-16.0625 17.285156-26.695312 22.527344v-.003907c-9.648438 4.757813-20.511719 7.433594-31.996094 7.433594-11.488281 0-22.351562-2.675781-32.003906-7.433594.003906 103.738281 0 103.746094 0 .003907zm0 0" fill="#c2c2c2"/><path d="m178 147.519531v82.136719h64v-82.136719c-9.648438 4.757813-20.511719 7.433594-31.996094 7.433594-11.488281.003906-22.351562-2.675781-32.003906-7.433594zm0 0" fill="#ffba4a"/><path d="m242 229.65625h-64c-21.609375 0-37.777344 28.117188-50.84375 60.398438 24.636719 0 50.84375 8.171874 50.84375 57.691406 0 8.800781 7.199219 16 16 16s16-7.199219 16-16c0-51.875 30.144531-73.636719 82.007812-59.742188-12.914062-31.410156-28.855468-58.347656-50.007812-58.347656zm0 0" fill="#fd4848"/><path d="m292.007812 288.003906c-51.863281-13.894531-82.003906 7.867188-82.003906 59.742188 0 8.800781-7.203125 16-16 16-8.800781 0-16-7.199219-16-16 0-49.519532-26.210937-57.691406-50.84375-57.691406-13.054687 32.257812-23.011718 68.667968-32.191406 85.332031-20.085938 36.460937-84.964844 82.691406-84.964844 126.609375h399.996094c0-43.917969-64.875-90.148438-84.960938-126.609375-9.378906-17.015625-19.5625-54.628907-33.03125-87.382813zm0 0" fill="#aa836d"/></g><path d="m83.097656 57.964844c2.132813 0 4.28125-.679688 6.101563-2.085938l.265625-.203125c4.390625-3.351562 5.234375-9.625 1.886718-14.015625-3.351562-4.390625-9.628906-5.234375-14.015624-1.882812l-.351563.269531c-4.375 3.371094-5.183594 9.652344-1.8125 14.023437 1.972656 2.554688 4.933594 3.894532 7.925781 3.894532zm0 0"/><path d="m366.863281 411.753906c-13.539062-14.890625-26.328125-28.957031-33.070312-41.191406-4.824219-8.757812-10.355469-24.820312-16.214844-41.828125-4.964844-14.421875-10.292969-29.890625-16.324219-44.515625-.058594-.140625-.109375-.28125-.175781-.417969-12.398437-29.976562-27.773437-56.316406-49.074219-62.679687v-67.65625c7.0625-4.191406 13.488282-9.4375 19.023438-15.519532 8.417968 4.140626 17.671875 6.300782 27.203125 6.300782 34.0625 0 61.773437-27.710938 61.773437-61.769532 0-34.0625-27.710937-61.769531-61.773437-61.769531-9.53125 0-18.785157 2.15625-27.203125 6.296875-15.539063-17.046875-37.75-27.003906-61.023438-27.003906-23.277344 0-45.488281 9.957031-61.027344 27.007812-8.417968-4.140624-17.671874-6.300781-27.203124-6.300781-1.941407 0-3.910157.09375-5.847657.273438-5.5.515625-9.539062 5.394531-9.023437 10.890625.519531 5.5 5.398437 9.542968 10.894531 9.023437 1.316406-.125 2.65625-.1875 3.976563-.1875 8.574218 0 16.808593 2.578125 23.820312 7.457031.324219.226563.660156.421876 1 .605469-.78125.847657-1.535156 1.730469-2.246094 2.65625-6.105468 7.945313-8.746094 17.789063-7.445312 27.71875.660156 5.035157 4.957031 8.703125 9.902344 8.703125.433593 0 .871093-.03125 1.3125-.085937 5.476562-.71875 9.332031-5.742188 8.617187-11.214844-.609375-4.636719.625-9.230469 3.472656-12.9375 2.847657-3.707031 6.96875-6.082031 11.605469-6.691406 4.628906-.605469 9.226562.628906 12.933594 3.476562 4.378906 3.363281 10.65625 2.539063 14.019531-1.839843 3.367187-4.378907 2.542969-10.65625-1.835937-14.019532-7.941407-6.105468-17.792969-8.75-27.71875-7.445312-.871094.113281-1.726563.269531-2.578126.441406 11.558594-11.121094 27.121094-17.53125 43.371094-17.53125 19.945313 0 38.863282 9.65625 50.601563 25.832031 4.488281 6.199219 7.765625 13.085938 9.746093 20.476563 1.195313 4.46875 5.234376 7.414062 9.652344 7.414062.855469 0 1.726563-.109375 2.59375-.34375 5.335938-1.429687 8.5-6.910156 7.070313-12.246094-1.632813-6.105468-3.941407-11.949218-6.890625-17.472656 4.875-1.945312 10.097656-2.953125 15.453125-2.953125 23.03125 0 41.769531 18.738281 41.769531 41.773438 0 23.03125-18.738281 41.769531-41.769531 41.769531-8.574219 0-16.8125-2.578125-23.820313-7.457031-4.46875-3.113281-10.605468-2.074219-13.808594 2.332031-5.941406 8.1875-13.855468 14.875-22.890624 19.359375-.042969.019531-.085938.035156-.128907.054687-8.53125 4.199219-18.070312 6.417969-27.578125 6.417969-9.511718 0-19.046875-2.21875-27.582031-6.417969-.046875-.019531-.089844-.035156-.136719-.058593-9.03125-4.480469-16.945312-11.167969-22.886718-19.355469-3.199219-4.40625-9.335938-5.445312-13.804688-2.332031-7.011719 4.878906-15.246094 7.457031-23.820312 7.457031-23.035157 0-41.773438-18.738281-41.773438-41.769531 0-2.238281.179688-4.484375.53125-6.683594.875-5.453125-2.835938-10.582031-8.292969-11.453125-5.449219-.875-10.582031 2.835938-11.453125 8.289062-.519531 3.242188-.785156 6.554688-.785156 9.847657 0 34.058593 27.710938 61.769531 61.773438 61.769531 9.53125 0 18.785156-2.15625 27.203124-6.300781 5.535157 6.082031 11.960938 11.328125 19.023438 15.519531v67.65625c-21.820312 6.519531-37.421875 34-49.980469 64.878906-.0625.144532-.121093.289063-.179687.4375-5.660156 13.964844-10.699219 28.601563-15.417969 42.296875-5.855469 17.007813-11.386719 33.070313-16.214844 41.828125-6.738281 12.234375-19.53125 26.300782-33.070312 41.191406-24.90625 27.390626-53.13281275 58.4375-53.13281275 90.246094 0 5.519532 4.47656275 10 9.99609375 10h77.722656.042969.058594 218.738281.058594.035156 103.34375c5.519531 0 10-4.480468 10-10 0-31.8125-28.230469-62.859375-53.136719-90.25zm-134.863281-249.804687v57.707031h-12v-19.40625c0-5.523438-4.476562-10-10-10s-10 4.476562-10 10v19.40625h-12v-57.707031c7.160156 1.976562 14.585938 3.007812 22 3.007812 7.417969 0 14.84375-1.03125 22-3.007812zm-53.996094 77.707031h63.996094c12.160156 0 23.292969 15.089844 33.019531 34.929688-20.46875-2.261719-37.679687 1.5625-50.449219 11.363281-16.074218 12.332031-24.570312 33.703125-24.570312 61.796875 0 3.25-2.746094 6-6 6-3.25 0-6-2.75-6-6 0-39.085938-15.507812-61.398438-46.136719-66.535156 10.441407-23.003907 22.65625-41.554688 36.140625-41.554688zm136.109375 252.34375c-3.367187-11.199219-7.726562-24.210938-12.203125-31.96875-2.761718-4.78125-8.875-6.421875-13.660156-3.660156-4.785156 2.761718-6.421875 8.875-3.660156 13.660156 2.378906 4.117188 5.257812 11.492188 8.585937 21.96875h-190.199219c4.714844-7.558594 11.605469-15.15625 19.179688-23.488281 14.824219-16.308594 33.273438-36.605469 43.710938-66.605469 1.816406-5.214844-.941407-10.914062-6.160157-12.730469-5.214843-1.8125-10.914062.941407-12.730469 6.160157-9.09375 26.140624-25.3125 43.980468-39.621093 59.722656-10.941407 12.039062-21.347657 23.519531-26.808594 36.941406h-59.207031c5.519531-21.617188 27.175781-45.433594 46.59375-66.789062 14.359375-15.789063 27.917968-30.699219 35.792968-44.996094 5.65625-10.265625 11.195313-26.347656 17.609376-44.964844 3.679687-10.683594 7.886718-22.902344 12.5625-34.953125 18.453124 1.417969 34.101562 10.027344 34.101562 47.449219 0 14.335937 11.664062 26 26 26s26-11.664063 26-26c0-15.089844 2.90625-35.308594 16.746094-45.929688 10.71875-8.226562 27.203125-10.039062 47.859375-5.335937 5.277343 13.261719 9.992187 26.953125 14.0625 38.765625 6.414062 18.621094 11.949219 34.703125 17.609375 44.96875 7.875 14.296875 21.433594 29.207031 35.789062 44.996094 19.417969 21.355468 41.078125 45.171874 46.597656 66.789062zm0 0"/><path d="m287.410156 434.914062c-2.765625-4.78125-8.878906-6.421874-13.660156-3.660156-4.785156 2.765625-6.421875 8.878906-3.660156 13.664063l.132812.230469c1.855469 3.210937 5.214844 5.003906 8.671875 5.003906 1.695313 0 3.414063-.433594 4.988281-1.34375 4.785157-2.761719 6.421876-8.878906 3.660157-13.660156zm0 0"/></svg>