<svg height="480pt" viewBox="-48 0 480 480.00024" width="480pt" xmlns="http://www.w3.org/2000/svg"><g fill="#e3e3e1"><path d="m184 336h16v144h-16zm0 0"/><path d="m116.75 399.304688 6.5-14.628907 144.003906 64-6.5 14.628907zm0 0"/><path d="m116.742188 448.695312 144.003906-64 6.5 14.628907-144 64zm0 0"/></g><path d="m344 344h-40l16 16h-256l-16-16h-40l24 24-24 24h40l16-16h256l-16 16h40l32-24zm0 0" fill="#fdbb3d"/><path d="m184 328h16v24h-16zm0 0" fill="#dbdbd9"/><path d="m48 200h11.390625c6.960937.003906 12.605469 5.648438 12.609375 12.609375-.683594 64.882813 49.453125 118.996094 114.199219 123.253906 32.796875 1.589844 64.808593-10.332031 88.578125-32.980469 23.773437-22.648437 37.222656-54.050781 37.222656-86.882812v-96.449219c.007812-10.707031-4.328125-20.964843-12.019531-28.417969-7.691407-7.457031-18.074219-11.472656-28.78125-11.132812-15.03125.851562-28.402344 9.828125-34.886719 23.417969l-44.3125 96.582031-35.519531-144.152344c-7.351563-28.183594-32.804688-47.847656-61.929688-47.847656h-38.550781c-26.507812 0-48 21.492188-48 48h40c-22.089844 0-40 17.910156-40 40v8h40c-22.089844 0-40 17.910156-40 40v8h40c-22.089844 0-40 17.910156-40 40v8z" fill="#e3e3e1"/><path d="m284 80h-37.703125c-22.375.003906-41.75-15.539062-46.601563-37.382812l-7.695312-34.617188h4.121094c12.726562 0 24.933594 5.058594 33.933594 14.054688l9.945312 9.945312v-24c10.386719 0 20.492188 3.367188 28.800781 9.601562l19.199219 14.398438-8-24h4c19.882812 0 36 16.117188 36 36s-16.117188 36-36 36zm0 0" fill="#dd4a43"/><path d="m312 119.550781 40 16.449219-40 16zm0 0" fill="#fdbb3d"/><path d="m328 208c-8.835938 0-16-7.164062-16-16v-48l28.496094 35.617188c2.265625 2.832031 3.503906 6.355468 3.503906 9.984374v2.398438c0 8.835938-7.164062 16-16 16zm0 0" fill="#dd4a43"/><path d="m288 128c0 8.835938-7.164062 16-16 16s-16-7.164062-16-16 7.164062-16 16-16 16 7.164062 16 16zm0 0" fill="#dd4a43"/><path d="m120 200h120c13.253906 0 24 10.746094 24 24 0 39.765625-32.234375 72-72 72s-72-32.234375-72-72zm0 0" fill="#f0f0f0"/><path d="m160 224h-40c.015625 5.386719.632812 10.753906 1.847656 16h38.152344zm0 0" fill="#dbdbd9"/><path d="m184 256h-56.425781c2.886719 5.800781 6.539062 11.179688 10.867187 16h45.558594zm0 0" fill="#dbdbd9"/><path d="m262.878906 217.121094c.710938 2.226562 1.085938 4.542968 1.121094 6.878906.035156 27.070312-15.136719 51.863281-39.253906 64.160156-24.113282 12.292969-53.09375 10.003906-74.976563-5.929687 18.289063 25.285156 50.796875 35.890625 80.480469 26.265625s49.777344-37.289063 49.75-68.496094c-.023438-10.570312-6.984375-19.875-17.121094-22.878906zm0 0" fill="#dbdbd9"/><path d="m288 128c0 8.835938-7.164062 16-16 16s-16-7.164062-16-16 7.164062-16 16-16 16 7.164062 16 16zm0 0"/><path d="m348.800781 337.601562c-1.386719-1.039062-3.070312-1.601562-4.800781-1.601562h-40c-3.234375 0-6.152344 1.949219-7.390625 4.9375-1.238281 2.992188-.550781 6.429688 1.734375 8.71875l10.34375 10.34375h-108.6875v-16.375c67.457031-4.109375 120.050781-60.042969 120-127.625v-1.472656c2.5625.949218 5.269531 1.445312 8 1.472656 13.253906 0 24-10.746094 24-24v-2.398438c0-5.453124-1.859375-10.738281-5.265625-14.992187l-16.902344-21.128906 25.144531-10.054688c3.027344-1.210937 5.015626-4.136719 5.03125-7.394531.015626-3.261719-1.949218-6.203125-4.96875-7.4375l-35.382812-14.546875c-1.226562-10.902344-6.21875-21.039063-14.121094-28.65625-.710937-.6875-1.464844-1.292969-2.207031-1.933594 18.3125-9.039062 28-29.488281 23.390625-49.382812-4.605469-19.898438-22.296875-34.0078128-42.71875-34.074219h-4c-2.523438.00390625-4.898438 1.195312-6.40625 3.214844-1.507812 2.023437-1.972656 4.636718-1.257812 7.058594-9.46875-6.660157-20.757813-10.2460942-32.335938-10.273438-4.417969 0-8 3.582031-8 8v5c-10.050781-8.433594-22.761719-13.0390625-35.878906-13h-4.121094c-2.425781 0-4.722656 1.101562-6.238281 2.996094-1.519531 1.890625-2.097657 4.371094-1.570313 6.738281l7.6875 34.617187c4.917969 22.542969 23.316406 39.660157 46.152344 42.945313-3.621094 3.800781-6.664062 8.113281-9.03125 12.800781l-34.71875 75.726563-30.058594-121.992188c-8.265625-31.707031-36.902344-53.832031-69.671875-53.832031h-38.550781c-30.914062.0351562-55.9648438 25.085938-56 56 0 4.417969 3.582031 8 8 8h4.257812c-7.902343 8.785156-12.2656245 20.1875-12.257812 32v8c0 4.417969 3.582031 8 8 8h4.257812c-7.902343 8.785156-12.2656245 20.1875-12.257812 32v8c0 4.417969 3.582031 8 8 8h4.257812c-7.902343 8.785156-12.2656245 20.1875-12.257812 32v8c0 4.417969 3.582031 8 8 8h51.390625c2.542969.003906 4.605469 2.066406 4.609375 4.609375-.960938 68.550781 51.628906 125.992187 120 131.0625v16.328125h-108.6875l-21.65625-21.65625c-1.5-1.5-3.535156-2.34375-5.65625-2.34375h-40c-3.234375 0-6.152344 1.949219-7.390625 4.9375-1.238281 2.992188-.5507812 6.429688 1.734375 8.71875l18.34375 18.34375-18.34375 18.34375c-2.2851562 2.289062-2.972656 5.730469-1.734375 8.71875s4.15625 4.9375 7.390625 4.9375h40c2.121094 0 4.15625-.84375 5.65625-2.34375l21.65625-21.65625h108.6875v35.6875l-60.75-27-6.496094 14.625 55.542969 24.6875-55.542969 24.6875 6.496094 14.625 60.75-27v43.6875h16v-43.6875l60.753906 27 6.496094-14.625-55.546875-24.6875 55.546875-24.6875-6.496094-14.625-60.753906 27v-35.6875h108.6875l-10.34375 10.34375c-2.285156 2.289062-2.972656 5.730469-1.734375 8.71875s4.15625 4.9375 7.390625 4.9375h40c1.730469 0 3.414062-.5625 4.800781-1.601562l32-24c2.015625-1.507813 3.199219-3.878907 3.199219-6.398438s-1.183594-4.890625-3.199219-6.398438zm-12.800781-148v2.398438c0 4.417969-3.582031 8-8 8s-8-3.582031-8-8v-25.191406l14.25 17.808594c1.125 1.417968 1.742188 3.171874 1.75 4.984374zm-16-49.425781v-8.679687l10.710938 4.398437zm-112.503906-99.296875-5.425782-24.4375c8.464844 1.25 16.300782 5.207032 22.328126 11.277344l9.945312 9.9375c2.289062 2.289062 5.730469 2.972656 8.71875 1.734375s4.9375-4.15625 4.9375-7.390625v-15.199219c5.796875 1.191407 11.261719 3.648438 16 7.199219l19.199219 14.398438c2.800781 2.101562 6.640625 2.140624 9.480469.09375 2.839843-2.046876 4.019531-5.699219 2.914062-9.019532l-4.160156-12.472656c13.519531 3.714844 22.207031 16.855469 20.332031 30.75-1.878906 13.894531-13.746094 24.257812-27.765625 24.25h-37.703125c-18.660156.085938-34.835937-12.886719-38.800781-31.121094zm-70.839844 215.121094c-2.902344-5.011719-5.105469-10.394531-6.550781-16h29.894531v-16h-32v-16h112c8.835938 0 16 7.164062 16 16 .042969 25.144531-14.664062 47.976562-37.578125 58.332031-22.910156 10.355469-49.765625 6.3125-68.613281-10.332031h34.191406v-16zm-56.65625-43.390625c-.011719-11.378906-9.230469-20.597656-20.609375-20.609375h-43.390625c0-17.671875 14.328125-32 32-32 4.417969 0 8-3.582031 8-8s-3.582031-8-8-8h-32c0-17.671875 14.328125-32 32-32 4.417969 0 8-3.582031 8-8s-3.582031-8-8-8h-32c0-17.671875 14.328125-32 32-32 4.417969 0 8-3.582031 8-8s-3.582031-8-8-8h-31.199219c3.824219-18.613281 20.199219-31.980469 39.199219-32h38.550781c25.445313 0 47.691407 17.152344 54.160157 41.761719l33.074218 134.238281h-61.785156c-4.417969 0-8 3.582031-8 8v24c0 44.183594 35.816406 80 80 80s80-35.816406 80-80c0-17.671875-14.328125-32-32-32h-35.527344l38.960938-84.984375c5.128906-10.996094 15.871094-18.292969 27.984375-19.015625 8.542969-.242188 16.824219 2.960938 22.980469 8.886719 6.160156 5.929687 9.628906 14.117187 9.601562 22.664062v96.449219c0 30.644531-12.558594 59.949219-34.746094 81.089844-22.1875 21.136718-52.070312 32.257812-82.679687 30.773437-60.625-3.746093-107.574219-54.523437-106.574219-115.253906zm-35.3125 171.390625h-17.375l10.34375-10.34375c3.121094-3.125 3.121094-8.1875 0-11.3125l-10.34375-10.34375h17.375l16 16zm296.648438 0h-18.023438l10.34375-10.34375c3.121094-3.125 3.121094-8.1875 0-11.3125l-10.34375-10.34375h18.023438l21.328124 16zm0 0"/></svg>